# xmcd
#
# Track frame offsets:
#	150
#	14528
#	31455
#	48978
#	66575
#	81593
#	105281
#	118493
#	130698
#	148726
#
# Disc length: 2250 seconds
#
# Revision: 1
# Processed by: cddbd v1.5.2PL0 Copyright (c) Steve Scherf et al.
# Submitted via: EZCDAudioConverter 3.1.5.1
#
DISCID=9308c80a
DTITLE=Τα μεγάλα ντουέτα
DYEAR=2007
DGENRE=Pop
TTITLE0=Μαρινέλλα=Τόλης Βοσκόπουλος - Σ αγαπώ
TTITLE1=Δάκης =Χριστίνα - Μίλα μου
TTITLE2=Δημήτρης Μητροπάνος_Δούκισσα - Όλα για μένα εισαι εσύ
TTITLE3=Δημήτρης Κοντολάζος-Άγγελος Διονυσίου - Άγνωστε φίλε
TTITLE4=Γιώργος Μαζωνάκης-Μαίρη Λύντα - Δέν θέλω πια να ξανάρθεις
TTITLE5=Αντώνης Πολίτης-Τζίνα Σπηλιωτοπούλου - Εσύ
TTITLE6=Γιάννης Βογιατζής-Τζένη Βάνου - Το αμαξάκι
TTITLE7=Rompert Williams-Μπέσσυ Αργυράκη - Μάθαμε τον Έρωτα
TTITLE8=Αντώνης Καλλογγιάννης-Αλεξία - Ώρα μηδέν
TTITLE9=Κώστας Τουρνάς-Moreira - Αν ο έρωτας ζεί
EXTD=
EXTT0=
EXTT1=
EXTT2=
EXTT3=
EXTT4=
EXTT5=
EXTT6=
EXTT7=
EXTT8=
EXTT9=
PLAYORDER=
